<svg data-name="Layer 1" xmlns="http://www.w3.org/2000/svg" viewBox="0 0 166.24 32.17">
<defs><style>.logo{fill:#444;}.cls-2,.cls-6{fill:#e95610;}.cls-3{fill:#fff;}.cls-4,.cls-5{fill:#2d2d2b;}.cls-5,.cls-6{fill-rule:evenodd;}</style>
</defs>
<path class="logo" d="M5.56,30.94a12.23,12.23,0,0,1-4.44-2.1,2.77,2.77,0,0,1-.86-.94,2.95,2.95,0,0,1,.36-3A1.8,1.8,0,0,1,2,24.12a2.82,2.82,0,0,1,.86.14,5.2,5.2,0,0,1,1,.5A13.46,13.46,0,0,0,7.4,26.34a14.3,14.3,0,0,0,3.88.5,7.6,7.6,0,0,0,4-.88,2.82,2.82,0,0,0,1.4-2.52,2.26,2.26,0,0,0-1.3-2A16.56,16.56,0,0,0,10.8,20a25.76,25.76,0,0,1-5.94-1.84,7.67,7.67,0,0,1-3.24-2.68,7.08,7.08,0,0,1-1-3.88A7.59,7.59,0,0,1,2.06,7.06a9.63,9.63,0,0,1,4-3.16,14.26,14.26,0,0,1,5.82-1.14A14.88,14.88,0,0,1,21.28,5.6a3.17,3.17,0,0,1,.86,1A2.65,2.65,0,0,1,22.4,7.8a2.72,2.72,0,0,1-.62,1.76,1.8,1.8,0,0,1-1.42.76,2.71,2.71,0,0,1-.82-.12,5.49,5.49,0,0,1-1.06-.52,17.15,17.15,0,0,0-3-1.56A10,10,0,0,0,12,7.6a6.77,6.77,0,0,0-3.84.94,3,3,0,0,0-1.4,2.58,2.31,2.31,0,0,0,.54,1.58,4.52,4.52,0,0,0,1.8,1.1,27.89,27.89,0,0,0,3.58,1c3.63.8,6.23,1.83,7.82,3.08A6.2,6.2,0,0,1,22.84,23a7.48,7.48,0,0,1-1.42,4.52,9.16,9.16,0,0,1-4,3,15.38,15.38,0,0,1-6,1.08A22.44,22.44,0,0,1,5.56,30.94Z"/><path class="logo" d="M28.08,30.56a2.92,2.92,0,0,1-.76-2.16V6a2.92,2.92,0,0,1,.76-2.16,2.92,2.92,0,0,1,2.16-.76H44.4c2,0,3,.8,3,2.4S46.37,8,44.4,8h-11v6.6H43.6c2,0,3,.81,3,2.44s-1,2.4-3,2.4H33.4v7.08h11c2,0,3,.81,3,2.44s-1,2.4-3,2.4H30.24A2.92,2.92,0,0,1,28.08,30.56Z"/><path class="logo" d="M101.1,26.12a2.6,2.6,0,0,1,.5,1.64,2.24,2.24,0,0,1-.4,1.26,3.27,3.27,0,0,1-1.12,1,14.56,14.56,0,0,1-3.16,1.18,13.34,13.34,0,0,1-3.32.46A11.84,11.84,0,0,1,88,30.4a8.68,8.68,0,0,1-3.66-3.54,10.89,10.89,0,0,1-1.28-5.42,11.08,11.08,0,0,1,1.24-5.32,9,9,0,0,1,3.44-3.62,9.58,9.58,0,0,1,5-1.3,9.14,9.14,0,0,1,4.7,1.18,8.16,8.16,0,0,1,3.14,3.36,11.08,11.08,0,0,1,1.12,5.1,1.92,1.92,0,0,1-.42,1.34,1.52,1.52,0,0,1-1.18.46H88.92a5.28,5.28,0,0,0,1.44,3.42,4.73,4.73,0,0,0,3.32,1.06,7.07,7.07,0,0,0,2.08-.28,21.59,21.59,0,0,0,2-.76q.56-.24,1.08-.42a2.81,2.81,0,0,1,.92-.18A1.58,1.58,0,0,1,101.1,26.12ZM90.16,16.46a5.14,5.14,0,0,0-1.24,3.18h7.72a5.27,5.27,0,0,0-1.06-3.2,3.35,3.35,0,0,0-2.66-1.08A3.62,3.62,0,0,0,90.16,16.46Z"/><path class="logo" d="M120.6,13.3c1.38,1.4,2.08,3.54,2.08,6.42v9a2.76,2.76,0,0,1-.76,2.06,2.94,2.94,0,0,1-2.12.74,2.77,2.77,0,0,1-2.06-.78,2.73,2.73,0,0,1-.78-2v-.28a4.71,4.71,0,0,1-2,2.32,6.28,6.28,0,0,1-3.28.84,8.09,8.09,0,0,1-3.62-.8,6.27,6.27,0,0,1-2.56-2.24,5.71,5.71,0,0,1-.94-3.2,4.92,4.92,0,0,1,1.1-3.4,6.5,6.5,0,0,1,3.54-1.8,31.42,31.42,0,0,1,6.68-.56h1v-.72a3.42,3.42,0,0,0-.74-2.44,3.34,3.34,0,0,0-2.46-.76,15.71,15.71,0,0,0-5,1.2,3.88,3.88,0,0,1-1.56.44,1.73,1.73,0,0,1-1.4-.62,2.41,2.41,0,0,1-.52-1.62,2.28,2.28,0,0,1,.36-1.32,3.2,3.2,0,0,1,1.16-1,12.64,12.64,0,0,1,3.42-1.2,18.81,18.81,0,0,1,4-.44Q118.52,11.2,120.6,13.3Zm-4.76,13a4.37,4.37,0,0,0,1.08-3.06v-.68h-.68a13.55,13.55,0,0,0-4.54.52A1.88,1.88,0,0,0,110.4,25a2.37,2.37,0,0,0,.74,1.82,2.57,2.57,0,0,0,1.86.7A3.66,3.66,0,0,0,115.84,26.3Z"/><path class="logo" d="M131,30.4a8.48,8.48,0,0,1-3.5-3.52,11.13,11.13,0,0,1-1.22-5.36,11,11,0,0,1,1.3-5.42,8.93,8.93,0,0,1,3.66-3.62,11.24,11.24,0,0,1,5.44-1.28,12.42,12.42,0,0,1,3.22.44,10.85,10.85,0,0,1,2.9,1.24A2.48,2.48,0,0,1,144,15.12a2.83,2.83,0,0,1-.48,1.7,1.51,1.51,0,0,1-1.28.66,2.63,2.63,0,0,1-1-.18c-.31-.12-.72-.3-1.22-.54a13.07,13.07,0,0,0-1.5-.68,4.37,4.37,0,0,0-1.5-.24,4.17,4.17,0,0,0-3.42,1.42,6.33,6.33,0,0,0-1.18,4.14,6.4,6.4,0,0,0,1.18,4.16A4.15,4.15,0,0,0,137,27a4.47,4.47,0,0,0,1.48-.22,13.16,13.16,0,0,0,1.56-.7q.75-.36,1.2-.54a2.49,2.49,0,0,1,1-.18,1.53,1.53,0,0,1,1.26.68,2.85,2.85,0,0,1,.5,1.72,2.38,2.38,0,0,1-1.24,2.2,10.72,10.72,0,0,1-3,1.24,14,14,0,0,1-3.52.44A10.92,10.92,0,0,1,131,30.4Z"/><path class="logo" d="M166.24,19.48v9.24a2.73,2.73,0,0,1-.82,2.08,3.13,3.13,0,0,1-2.22.76,3,3,0,0,1-2.2-.76,2.71,2.71,0,0,1-.8-2.08V19.4a4,4,0,0,0-.74-2.62,2.89,2.89,0,0,0-2.3-.86,4,4,0,0,0-3,1.2,4.46,4.46,0,0,0-1.14,3.2v8.4a2.75,2.75,0,0,1-.8,2.08,3.07,3.07,0,0,1-2.2.76,3.1,3.1,0,0,1-2.22-.76,2.69,2.69,0,0,1-.82-2.08v-23a2.52,2.52,0,0,1,.86-2,3.25,3.25,0,0,1,2.26-.76,3.06,3.06,0,0,1,2.12.72,2.47,2.47,0,0,1,.8,1.92v8.72a6.63,6.63,0,0,1,2.68-2.3,8.54,8.54,0,0,1,3.72-.78Q166.24,11.2,166.24,19.48Z"/><circle class="cls-2" cx="64" cy="16.08" r="16.08" transform="translate(46.32 79.66) rotate(-88.57)"/><path class="cls-3" d="M77.66,16.09A13.66,13.66,0,1,1,64,2.43,13.66,13.66,0,0,1,77.66,16.09Z"/><path class="cls-2" d="M75,16.09A11,11,0,1,1,64,5,11,11,0,0,1,75,16.09Z"/><path class="cls-3" d="M72.49,16.09A8.49,8.49,0,1,1,64,7.6,8.49,8.49,0,0,1,72.49,16.09Z"/><path class="cls-2" d="M69.84,16.09A5.84,5.84,0,1,1,64,10.24,5.84,5.84,0,0,1,69.84,16.09Z"/><path class="cls-3" d="M67.49,16.09A3.49,3.49,0,1,1,64,12.59,3.49,3.49,0,0,1,67.49,16.09Z"/><rect class="cls-4" x="67.15" y="10.36" width="18.05" height="1.21" transform="translate(2.1 31.84) rotate(-23.93)"/><polygon class="cls-5" points="71.28 16.73 67.96 14.72 68.62 10.72 63.94 16.39 71.28 16.73"/><polygon class="cls-6" points="86.81 8.44 84.79 7.22 85.19 4.79 82.51 5.97 82.06 8.36 84.08 9.65 86.81 8.44"/></svg>